<svg xmlns="http://www.w3.org/2000/svg" xmlns:xlink="http://www.w3.org/1999/xlink" viewBox="0,0,256,256" width="48px" height="48px"><g fill="none" fill-rule="nonzero" stroke="none" stroke-width="none" stroke-linecap="none" stroke-linejoin="none" stroke-miterlimit="10" stroke-dasharray="" stroke-dashoffset="0" font-family="none" font-weight="none" font-size="none" text-anchor="none" style="mix-blend-mode: normal"><g transform="scale(5.33333,5.33333)"><path d="M41,42h-27c-2.8,0 -5,-2.2 -5,-5v-19c0,-2.8 2.2,-5 5,-5h27c2.8,0 5,2.2 5,5v19c0,2.8 -2.2,5 -5,5z" fill="#eaeaea" stroke="none" stroke-width="1" stroke-linecap="butt" stroke-linejoin="miter"></path><path d="M42.5,23.5v10c0,2.8 -2.2,5 -5,5h-27c-2.8,0 -5,-2.2 -5,-5v-3" fill="none" stroke="#ffffff" stroke-width="3" stroke-linecap="round" stroke-linejoin="round"></path><path d="M5.5,24.9v-10.4c0,-2.8 2.2,-5 5,-5h27c2.8,0 5,2.2 5,5v2" fill="none" stroke="#ffffff" stroke-width="3" stroke-linecap="round" stroke-linejoin="round"></path><path d="M11.7,19.8l11.3,6.2c0.6,0.3 1.3,0.3 1.9,0l17.5,-9.5" fill="none" stroke="#ffffff" stroke-width="3" stroke-linecap="round" stroke-linejoin="round"></path></g></g></svg>