<svg xmlns="http://www.w3.org/2000/svg" xmlns:xlink="http://www.w3.org/1999/xlink" viewBox="0,0,256,256" width="50px" height="50px"><g fill="#eeeeee" fill-rule="nonzero" stroke="none" stroke-width="1" stroke-linecap="butt" stroke-linejoin="miter" stroke-miterlimit="10" stroke-dasharray="" stroke-dashoffset="0" font-family="none" font-weight="none" font-size="none" text-anchor="none" style="mix-blend-mode: normal"><g transform="scale(5.12,5.12)"><path d="M25,7.21875l-1.40625,1.4375l-9.90625,9.875c-0.78516,0.78516 -0.78516,2.05859 0,2.84375c0.78516,0.78516 2.05859,0.78516 2.84375,0l6.46875,-6.5v25.125c-0.01172,0.72266 0.36719,1.39063 0.99219,1.75391c0.62109,0.36719 1.39453,0.36719 2.01563,0c0.625,-0.36328 1.00391,-1.03125 0.99219,-1.75391v-25.125l6.46875,6.5c0.78516,0.78516 2.05859,0.78516 2.84375,0c0.78516,-0.78516 0.78516,-2.05859 0,-2.84375l-9.90625,-9.875z"></path></g></g></svg>