<?xml version="1.0" encoding="UTF-8"?>
<svg id="Layer_1" data-name="Layer 1" xmlns="http://www.w3.org/2000/svg" viewBox="0 0 249.92 100">
  <defs>
    <style>
      .cls-1 {
        fill: #4d4d4d;
      }
    </style>
  </defs>
  <path class="cls-1" d="m0,97.43V2.57C0,1.15,1.15,0,2.57,0h21.86c1.6,0,3.1.74,4.07,2.01l37.17,48.6c.74.97,2.3.45,2.3-.78V2.57C67.97,1.15,69.12,0,70.53,0h23.42c1.42,0,2.57,1.15,2.57,2.57v94.87c0,1.42-1.15,2.57-2.57,2.57h-21.86c-1.6,0-3.1-.74-4.08-2.01L30.85,49.39c-.75-.97-2.3-.45-2.3.78v47.27c0,1.42-1.15,2.57-2.57,2.57H2.57c-1.42,0-2.57-1.15-2.57-2.57Z"/>
  <path class="cls-1" d="m151.81,49.55V2.55c0-1.41,1.14-2.55,2.55-2.55h23.47c1.59,0,3.09.74,4.06,2.01l37.17,48.6c.75.97,2.3.45,2.3-.78V2.55c0-1.41,1.14-2.55,2.55-2.55h23.45c1.41,0,2.55,1.14,2.55,2.55v94.9c0,1.41-1.14,2.55-2.55,2.55h-21.93c-1.56,0-3.04-.71-4.01-1.94l-38.78-48.94c-.76-.95-2.29-.42-2.29.8v47.53c0,1.41-1.14,2.55-2.55,2.55h-21.94c-1.56,0-3.03-.71-4-1.93l-39.96-50.24c-.72-.91-1.11-2.03-1.11-3.18V2.27c0-.6.24-1.17.66-1.6h0c.99-1,2.64-.86,3.46.28l34.55,49.34c.72,1.03,2.33.52,2.33-.74Z"/>
</svg>