<svg xmlns="http://www.w3.org/2000/svg"  viewBox="0 0 32 32" width="32px" height="32px"><path fill="#FFE6E2" d="M26,32H6c-3.314,0-6-2.686-6-6V6c0-3.314,2.686-6,6-6h20c3.314,0,6,2.686,6,6v20C32,29.314,29.314,32,26,32 z"/><path fill="#FFE6E2" d="M26,32H6c-3.314,0-6-2.686-6-6V6c0-3.314,2.686-6,6-6h20c3.314,0,6,2.686,6,6v20C32,29.314,29.314,32,26,32 z"/><g><path fill="#FC573B" d="M8.744,19.72c-0.271,1.621,0.173,2.923,1.243,3.659C10.536,23.767,11.22,24,11.959,24 c0.002,0,0.004,0,0.006,0c1.228,0,2.475-0.611,3.68-1.205c0.86-0.421,1.747-0.861,2.62-1.075c0.323-0.079,0.659-0.125,1.014-0.176 c0.719-0.102,1.462-0.208,2.129-0.593c0.759-0.437,1.301-1.173,1.464-2.042l0.003-0.019c0.117-0.663,0-1.329-0.298-1.913 c0.2-0.32,0.313-0.695,0.313-1.098l0.001,0.001c-0.002-0.959-0.659-1.766-1.55-2.003l-0.015-0.003L23.334,8h-9.952l2.014,5.892 c-0.878,0.26-1.507,1.053-1.508,1.992c0,0.695,0.349,1.311,0.882,1.691c-0.223,0.309-0.462,0.581-0.726,0.827l-0.003,0.003 c-0.482,0.456-1.051,0.827-1.678,1.085l-0.036,0.013c-0.561-0.375-0.803-1.037-0.584-1.631c0.859-0.271,1.47-1.055,1.47-1.98 c0-1.142-0.931-2.069-2.082-2.073h-0.001c-1.155,0.001-2.091,0.93-2.092,2.075c0,0.565,0.233,1.084,0.607,1.455 c-0.032,0.065-0.065,0.13-0.098,0.199C9.235,18.187,8.88,18.909,8.744,19.72z M21.98,15.879L21.98,15.879 c-0.001,0.644-0.528,1.167-1.177,1.167c-0.649-0.002-1.175-0.525-1.175-1.169c0-0.37,0.173-0.699,0.444-0.913l0.003-0.002 l0.005-0.005c0.038-0.028,0.079-0.056,0.121-0.083c0,0,0.005,0,0.005-0.005c0.019-0.009,0.037-0.023,0.056-0.033 c0.005,0,0.009-0.004,0.014-0.004c0.019-0.009,0.042-0.019,0.065-0.028c0.023-0.009,0.047-0.018,0.066-0.027 c0.005,0,0.009-0.005,0.013-0.005c0.019-0.005,0.038-0.014,0.056-0.019c0.005,0,0.013-0.005,0.019-0.005 c0.023-0.005,0.042-0.009,0.065-0.013h0.005l0.07-0.015c0.005,0,0.013,0,0.019-0.005c0.019,0,0.037-0.005,0.056-0.005h0.024 c0.024,0,0.047-0.005,0.075-0.005h0.061c0.019,0,0.034,0,0.052,0.005h0.009c0.037,0.005,0.075,0.009,0.112,0.019 C21.581,14.848,21.979,15.317,21.98,15.879z M14.685,8.927h7.346l-1.686,4.933c-0.07,0.013-0.14,0.037-0.21,0.06l-1.774-3.59 l-1.78,3.567c-0.07-0.023-0.145-0.037-0.22-0.051L14.685,8.927z M17.395,14.366l-0.001-0.001l0.967-1.936l0.976,1.978 c-0.289,0.287-0.499,0.653-0.583,1.07h-0.729C17.933,15.033,17.709,14.653,17.395,14.366z M14.797,15.875c0-0.001,0-0.002,0-0.003 c0-0.541,0.374-0.997,0.879-1.125l0.008-0.002v-0.001c0.023-0.005,0.042-0.009,0.065-0.013h0.013 c0.02-0.005,0.038-0.005,0.057-0.01h0.019c0.019,0,0.033-0.005,0.051-0.005h0.182c0.019,0,0.033,0.005,0.047,0.005 c0.009,0,0.013,0,0.024,0.005c0.018,0.005,0.032,0.005,0.051,0.009c0.005,0,0.009,0,0.019,0.005l0.065,0.013h0.005 c0.019,0.005,0.038,0.01,0.056,0.019c0.005,0,0.009,0.005,0.019,0.005c0.014,0.005,0.033,0.009,0.047,0.018 c0.005,0,0.009,0.005,0.013,0.005c0.019,0.009,0.038,0.014,0.056,0.023h0.005c0.023,0.009,0.043,0.02,0.061,0.033l-0.001-0.001 h0.005c0.019,0.009,0.038,0.023,0.056,0.032c0.005,0,0.005,0.005,0.009,0.005c0.019,0.009,0.034,0.023,0.052,0.033l0.005,0.005 c0.056,0.041,0.108,0.088,0.159,0.134l0.005,0.005c0.2,0.209,0.323,0.491,0.323,0.802c0,0.001,0,0.003,0,0.005 c-0.022,0.628-0.54,1.129-1.177,1.129s-1.155-0.501-1.177-1.127V15.875z M11.088,14.712c0.649,0,1.177,0.524,1.177,1.167 c0,0.643-0.528,1.167-1.176,1.167c-0.649,0-1.178-0.523-1.178-1.167C9.911,15.237,10.44,14.712,11.088,14.712z M9.663,19.868 c0.112-0.677,0.425-1.311,0.724-1.918c0.019-0.037,0.033-0.069,0.052-0.107c0.102,0.037,0.21,0.065,0.322,0.084 c-0.177,0.982,0.327,1.996,1.308,2.497l0.177,0.093l0.191-0.069c0.817-0.287,1.574-0.755,2.242-1.381 c0.364-0.337,0.684-0.712,0.956-1.121l0.015-0.023c0.108,0.018,0.215,0.023,0.323,0.023c0.967-0.002,1.778-0.653,2.018-1.537 l0.003-0.015h0.784c0.241,0.899,1.055,1.551,2.022,1.551h0.001c0.387,0,0.746-0.107,1.055-0.287 c0.121,0.347,0.159,0.709,0.093,1.07h0.001c-0.113,0.613-0.488,1.122-1.004,1.417l-0.01,0.005 c-0.51,0.292-1.135,0.385-1.794,0.477c-0.439,0.056-0.813,0.124-1.181,0.209l0.079-0.015c-0.971,0.237-1.905,0.7-2.811,1.145 c-1.159,0.569-2.252,1.107-3.265,1.107c-0.005,0-0.01,0-0.016,0c-0.536,0-1.032-0.171-1.435-0.461 C9.491,21.908,9.542,20.59,9.663,19.868z"/></g></svg>