<svg xmlns="http://www.w3.org/2000/svg"  viewBox="0 0 48 48" width="48px" height="48px"><path fill="#ffe082" d="M41,42H14c-2.8,0-5-2.2-5-5V18c0-2.8,2.2-5,5-5h27c2.8,0,5,2.2,5,5v19C46,39.8,43.8,42,41,42z"/><path fill="none" stroke="#18193f" stroke-linecap="round" stroke-linejoin="round" stroke-width="3" d="M42.5,23.5v10c0,2.8-2.2,5-5,5h-27c-2.8,0-5-2.2-5-5v-3"/><path fill="none" stroke="#18193f" stroke-linecap="round" stroke-linejoin="round" stroke-width="3" d="M5.5,24.9V14.5c0-2.8,2.2-5,5-5h27c2.8,0,5,2.2,5,5v2"/><path fill="none" stroke="#18193f" stroke-linecap="round" stroke-linejoin="round" stroke-width="3" d="M11.7,19.8L23,26c0.6,0.3,1.3,0.3,1.9,0l17.5-9.5"/></svg>